<?xml version="1.0" standalone="no"?>
<!DOCTYPE svg PUBLIC "-//W3C//DTD SVG 20010904//EN"
 "http://www.w3.org/TR/2001/REC-SVG-20010904/DTD/svg10.dtd">
<svg version="1.0" xmlns="http://www.w3.org/2000/svg"
 width="200.000000pt" height="200.000000pt" viewBox="0 0 200.000000 200.000000"
 preserveAspectRatio="xMidYMid meet">

<g transform="translate(0.000000,200.000000) scale(0.100000,-0.100000)"
fill="#000000" stroke="none">
<path d="M940 1224 c-14 -3 -40 -7 -58 -10 -28 -4 -37 -13 -53 -48 -15 -34
-25 -45 -49 -49 -21 -5 -30 -12 -30 -26 0 -11 5 -21 12 -23 8 -3 12 -40 12
-124 1 -115 2 -119 23 -122 16 -2 26 4 35 22 l11 26 158 0 c156 0 158 0 161
-22 2 -17 10 -23 28 -23 l25 0 1 120 c1 80 5 120 13 123 6 2 11 12 11 23 0 14
-9 21 -30 25 -22 5 -32 14 -41 41 -6 18 -21 40 -32 47 -23 14 -152 27 -197 20z
m196 -84 c7 -14 15 -35 19 -47 l6 -23 -160 0 c-178 0 -175 -2 -146 66 l14 35
128 -3 c125 -3 128 -3 139 -28z m-278 -153 c4 -20 -25 -34 -40 -19 -15 15 -1
44 19 40 10 -2 19 -11 21 -21z m325 11 c7 -21 -4 -38 -23 -38 -23 0 -34 16
-26 35 7 18 43 20 49 3z"/>
<path d="M100 570 c0 -17 7 -46 14 -65 12 -29 20 -35 44 -35 35 0 52 31 52 91
0 33 -3 40 -17 37 -13 -2 -19 -15 -21 -46 -5 -65 -32 -49 -32 19 0 22 -5 29
-20 29 -16 0 -20 -7 -20 -30z"/>
<path d="M240 536 l0 -66 50 0 c38 0 50 4 50 15 0 10 -10 15 -30 15 -16 0 -30
5 -30 10 0 6 9 10 20 10 11 0 20 7 20 15 0 8 -9 15 -20 15 -11 0 -20 5 -20 10
0 6 14 10 31 10 50 0 29 25 -24 28 l-47 3 0 -65z"/>
<path d="M360 535 c0 -58 2 -65 20 -65 15 0 20 7 20 25 0 16 6 25 15 25 9 0
15 -9 15 -25 0 -18 5 -25 20 -25 18 0 20 7 20 65 0 58 -2 65 -20 65 -15 0 -20
-7 -20 -25 0 -16 -6 -25 -15 -25 -9 0 -15 9 -15 25 0 18 -5 25 -20 25 -18 0
-20 -7 -20 -65z"/>
<path d="M500 585 c0 -8 5 -15 10 -15 6 0 10 -16 10 -35 0 -19 -4 -35 -10 -35
-5 0 -10 -7 -10 -15 0 -11 12 -15 45 -15 33 0 45 4 45 15 0 8 -7 15 -15 15
-10 0 -15 10 -15 30 0 18 6 33 15 36 8 4 15 12 15 20 0 10 -13 14 -45 14 -33
0 -45 -4 -45 -15z"/>
<path d="M621 586 c-7 -8 -11 -36 -9 -63 l3 -48 43 -3 c33 -2 42 0 42 12 0 10
-9 16 -26 16 -23 0 -25 3 -22 33 2 24 8 33 26 35 12 2 22 10 22 18 0 19 -64
19 -79 0z"/>
<path d="M730 535 l0 -65 50 0 50 0 0 35 c0 25 -4 35 -16 35 -9 0 -18 -9 -21
-20 -10 -37 -23 -20 -23 30 0 43 -3 50 -20 50 -18 0 -20 -7 -20 -65z"/>
<path d="M860 535 l0 -65 45 0 c33 0 45 4 45 15 0 9 -9 15 -25 15 -14 0 -25 5
-25 10 0 6 9 10 20 10 11 0 20 7 20 15 0 9 -10 15 -26 15 -14 0 -23 4 -19 10
3 6 17 10 31 10 15 0 24 6 24 15 0 11 -12 15 -45 15 l-45 0 0 -65z"/>
<path d="M1010 585 c0 -8 7 -15 15 -15 11 0 15 -12 15 -50 0 -43 3 -50 20 -50
17 0 20 7 20 46 0 37 4 47 20 51 11 3 20 12 20 19 0 10 -15 14 -55 14 -42 0
-55 -3 -55 -15z"/>
<path d="M1140 535 c0 -58 2 -65 20 -65 13 0 20 7 20 20 0 11 7 20 15 20 8 0
15 -9 15 -20 0 -14 7 -20 21 -20 20 0 21 3 14 58 -4 31 -9 60 -12 65 -2 4 -24
7 -49 7 l-44 0 0 -65z m60 20 c0 -8 -4 -15 -10 -15 -5 0 -10 7 -10 15 0 8 5
15 10 15 6 0 10 -7 10 -15z"/>
<path d="M1289 573 c-6 -16 -13 -45 -16 -65 -5 -34 -3 -38 16 -38 12 0 21 6
21 15 0 8 9 15 20 15 11 0 20 -7 20 -15 0 -9 9 -15 21 -15 19 0 21 4 16 38
-10 70 -23 92 -57 92 -24 0 -33 -6 -41 -27z m51 -28 c0 -8 -4 -15 -10 -15 -5
0 -10 7 -10 15 0 8 5 15 10 15 6 0 10 -7 10 -15z"/>
<path d="M1421 586 c-7 -8 -11 -36 -9 -63 l3 -48 43 -3 c33 -2 42 0 42 12 0
10 -9 16 -26 16 -23 0 -25 3 -22 33 2 24 8 33 26 35 12 2 22 10 22 18 0 19
-64 19 -79 0z"/>
<path d="M1530 536 c0 -59 2 -66 20 -66 15 0 20 7 20 26 0 31 23 28 28 -4 2
-14 11 -22 23 -22 15 0 19 7 19 34 0 19 -5 38 -10 41 -6 3 -7 17 -4 31 9 34
-23 32 -39 -2 l-12 -27 -5 24 c-3 13 -14 25 -23 27 -15 3 -17 -6 -17 -62z"/>
<path d="M1667 593 c-4 -3 -7 -33 -7 -65 l0 -58 50 0 c38 0 50 4 50 15 0 10
-10 15 -30 15 -16 0 -30 5 -30 10 0 6 11 10 25 10 16 0 25 6 25 15 0 9 -10 15
-26 15 -14 0 -23 4 -19 10 3 6 17 10 31 10 15 0 24 6 24 15 0 11 -11 15 -43
15 -24 0 -47 -3 -50 -7z"/>
<path d="M1790 535 c0 -51 3 -65 15 -65 8 0 15 9 15 20 0 13 7 20 20 20 13 0
20 -7 20 -20 0 -13 7 -20 20 -20 15 0 20 7 20 29 0 17 -4 32 -10 36 -5 3 -7
12 -3 20 9 25 -17 45 -58 45 l-39 0 0 -65z m60 20 c0 -8 -4 -15 -9 -15 -13 0
-22 16 -14 24 11 11 23 6 23 -9z"/>
</g>
</svg>
